<svg width="38" height="23" viewBox="0 0 38 23" xmlns="http://www.w3.org/2000/svg"><title>028D94C5-30EE-4E7C-B655-8FD5E56676C1</title><g fill="#FFF" fill-rule="evenodd"><path d="M33.995 21.305l-2.469-1.801-2.518 1.8.956-2.921-2.469-1.798h3.058l.935-2.904.945 2.904h3.058l-2.47 1.798.974 2.922zM30.585 12h-3.527c-.584 0-1.058.473-1.058 1.057v8.886c0 .584.474 1.057 1.058 1.057H37V12h-6.415zM20.99 21.305l-2.467-1.801-2.488 1.8.955-2.921-2.467-1.798h3.055l.934-2.904.945 2.904h3.056l-2.468 1.798.945 2.922zM17.582 12h-3.525c-.584 0-1.057.473-1.057 1.057v8.886c0 .584.473 1.057 1.057 1.057H24V12h-6.418zM7.989 21.305l-2.471-1.801-2.507 1.8.957-2.921-2.471-1.798h3.06l.936-2.904.946 2.904h3.06l-2.47 1.798.96 2.922zM4.589 12H1.06C.474 12 0 12.473 0 13.057v8.886C0 22.527.474 23 1.06 23H11V12H4.59zM5.593 2.861C5.516 4.626 4.35 5.773 2.797 5.773A2.677 2.677 0 0 1 .7 4.82 2.911 2.911 0 0 1 0 2.854 2.837 2.837 0 0 1 .86.807 2.674 2.674 0 0 1 2.857.003a2.508 2.508 0 0 1 2.412 1.514h-.982a1.81 1.81 0 0 0-1.489-.71 1.875 1.875 0 0 0-1.363.58 2.19 2.19 0 0 0-.035 2.967c.364.389.868.614 1.398.625.828 0 1.478-.445 1.894-1.334H2.196v-.784h3.397zM8.605 1.048l-.79 2.118h1.562l-.772-2.118zm-1.692 4.49h-.846L8.22 0h.773l2.156 5.538h-.873L9.67 3.92H7.53l-.618 1.617zM11.624 5.552V0h1.181L14.4 4.295 15.993 0h1.167v5.552h-.748l.052-4.818-1.786 4.818h-.566L12.333.734l.056 4.818zM20.466 5.771a2.703 2.703 0 0 1-2.04-.882 2.903 2.903 0 0 1-.79-2.065A2.763 2.763 0 0 1 18.47.816 2.758 2.758 0 0 1 20.48 0a2.82 2.82 0 0 1 2.746 2.216h-1.46a1.415 1.415 0 0 0-1.276-.836 1.43 1.43 0 0 0-1.027.414 1.458 1.458 0 0 0-.43 1.03 1.515 1.515 0 0 0 1.44 1.56 1.446 1.446 0 0 0 1.268-.799h1.461a2.76 2.76 0 0 1-2.73 2.171M26.362 1.835l-.55 1.765h1.091l-.541-1.765zM25.17 5.552h-1.468L25.799 0h1.097l2.097 5.552h-1.457l-.273-.805h-1.817l-.276.805zM31.072 2.575c.664 0 .993-.173.993-.67 0-.498-.287-.65-.885-.65h-.37v1.32h.262zm-1.604 2.976V.013h1.824c.486-.052.976.054 1.398.303.497.354.778.94.745 1.553a1.732 1.732 0 0 1-1.248 1.79l1.339 1.892h-1.664l-1.049-1.79v1.79h-1.345zM34 5.552V0h2.985v1.225h-1.64v.9h1.64v1.231h-1.64v.971h1.64v1.225zM3.03 8.052a1.393 1.393 0 0 0-1.066-.54A1.434 1.434 0 0 0 .566 8.976c-.01.797.61 1.456 1.398 1.486.407-.004.791-.19 1.049-.508h.699a1.95 1.95 0 0 1-1.723 1.02 1.968 1.968 0 0 1-1.407-.582A2.008 2.008 0 0 1 0 8.973a1.976 1.976 0 0 1 .57-1.397c.367-.37.865-.578 1.384-.576.416.001.82.132 1.16.374.245.177.445.409.584.678H3.03zM4.192 10.833V7h2.044v.512H4.744v1.13h1.492v.51H4.744v1.17h1.492v.51zM7.269 8.987h.38c.224 0 1.05 0 1.05-.752 0-.321-.214-.706-.84-.706h-.59v1.458zM8.53 10.84L7.28 9.075v1.765h-.564V7.007h1.175a1.33 1.33 0 0 1 1.01.321c.232.243.357.57.35.907.02.304-.086.603-.292.826-.206.223-.494.35-.796.35l1.049 1.411-.682.018zM10.463 10.833V7.512h-.73V7h2.01v.512h-.728v3.32zM12.222 7h.552v3.833h-.552zM13.702 10.833V7h1.92v.512h-1.368v1.15h1.367v.512h-1.367v1.659zM16.101 7h.556v3.833h-.556zM20.573 8.055a1.393 1.393 0 0 0-1.066-.54 1.434 1.434 0 0 0-1.398 1.465c-.01.796.61 1.455 1.398 1.486.407-.004.79-.19 1.048-.508h.7a1.95 1.95 0 0 1-1.724 1.02 1.988 1.988 0 0 1-1.95-2.005 1.976 1.976 0 0 1 .57-1.397c.367-.37.865-.578 1.384-.576.415.001.82.132 1.16.374.245.177.445.409.584.678l-.706.003zM23.94 9.192l-.483-1.465-.485 1.465h.968zm.611 1.64l-.423-1.128h-1.363l-.42 1.129h-.586L23.199 7h.496l1.44 3.833h-.584zM26.342 10.833V7.512h-.727V7h2.01v.512h-.73v3.32zM28.105 7h.556v3.833h-.556zM31.549 7.512a1.46 1.46 0 0 0-1.377.876c-.24.547-.13 1.187.28 1.619a1.45 1.45 0 0 0 1.59.353c.551-.22.917-.753.926-1.352.013-.39-.13-.768-.397-1.05a1.426 1.426 0 0 0-1.022-.446m0 3.462A1.968 1.968 0 0 1 29.73 9.74c-.302-.745-.129-1.6.439-2.167a1.954 1.954 0 0 1 2.15-.415 1.988 1.988 0 0 1 1.2 1.85 1.984 1.984 0 0 1-1.971 1.966M36.443 10.833l-1.877-2.961h-.01v2.96H34V7h.605l1.849 2.915h.007V7h.555v3.833z"/></g></svg>