<svg xmlns="http://www.w3.org/2000/svg" width="28" height="36" viewBox="0 0 28 36">
    <g fill="#FFF" fill-rule="nonzero">
        <path d="M17.666 3.061l-.205-.068-.22.11h-.33l-.11.333-.109.332.11.333-.33.11v.666l-.11.221-.11.111-.329.222v.332l.11.333h-.11l-.22-.111h-.329l-.439.333-.549-.222-.33.332-.22.111.11.222.22.11.11.222.22-.11.22.221.329-.11v.221l-.33.222-.22.11v.222l-.438.111-.55-.11-.22.332-.109.221-.33.111-.329.111.22.222v.221l.22.222.11.333h.219l.22.11.22.222v.333l.438.11v.555l.33.221h.659l.22.222.11.11v.112l.219.11.439.111.55-.221.109.221.44.111.109-.443.11.11.22-.443.439-.221.11-.444-.33-.221v-.222l.33-.222.11-.332.329-.333.769.333v.221l.11.111.219.444-.11.221.22.111v.333l.549.332.22-.11.22.22.109.333-.22.111.11.333-.11.221.22.333.44-.222.219.111.22-.332.11.221h.329l.22-.221-.11-.222.22-.111.219.11.208.106c-.135.19.806.512.682.845-.473.466-1.262-.634-1.338.131-.284.607.195 1.128.672 1.192-.067.513.149.658-.027 1.23-.032.778.664 1.077.95 1.579-.076.483-.622 1.218-.03 1.45.062.015.166.014.181.094-.171.23-.782-.24-.926.315.275.52.834.543.655 1.227.41.615.307 1.377.35 2.088.43.262-.192.978-.391 1.292-.256.584-.277 1.17-.625 1.732.394.889-.353 1.545-.758 2.261.054.624-.096.283-.436.444-.099.433.255.449.343.312-.043.12-.064.244 0 .367.578.082.09 1.078-.11.748.107-.272-.553.166-.387-.166-.432.448-.824.151-1.332-.063-.558.132-.432.013-.291-.398-.433.326-.317.3-.34.696-.172.14-.933.806-.436.215.093-.399-.384-.951-.494-1.077.12.436.224.826.096 1.053-.17.363-.903.332-.55-.056-.294-.056-.11.139-.452.187-.624.23-1.633-.073-2.145.572-.46-.338-.255.312.075.263-.244.35-.411.663-.954.696-.109.618-.919-.266-.957.544-.312-.007.367.441-.32.343-.55.092-.218.661-.905.543-.39.28-1.292.132-.37-.443.15-.412-.832.094-1.137-.215-.236.406.486-.064.412.36.323.374.113.876-.23 1.12-.433.076-.61.498-.913.11.056.12-.098.779-.106.8-.26-.52-.965-.15-.79.357-.354.1-.623-.365-.933-.038-.288.34-.425.528-.71.066-.17.257-.923-.188-.652.173-.14.406-.506.129-.587.582-.31-.17-.37-.093-.817.135-.395-.201.004-.588-.384-.783.008.37-.59.27-.759.464-.271.352-.41-.388-.686.222-.066.27-.48.28-.61.204-.107-.54 1.028-.67 1.31-1.285.369-.309-.695.275-.913.343-.447.286-.625.217-.195-.145.482-.462 1.392-.557 1.784-1.029.164-.415-.448.058-.49-.499.035.499-.696.727-1.246.832-.721-.087-.952.54-1.555.543-.339-.034-.736.225-.425-.142.567.021.254-.361.27-.495.434.1.876-.302.512-.45.278-.265.552-.31.618-.208.163-.318.573-.064.429-.381.18-.486 1.046-.46 1.146-.759-.655.025-1.29.568-1.538.579-.341-.028-1.01.39-1.424.63.123-.364-.84-.241-.264-.505.033-1.01-.524-.126-.858.1.027-.319-.043-.542-.257-.63-.196-.454 1.268-.266.521-.835-.113-.142.3-.407.488-.499.417-.291 1.22-.218 1.3-.717.11.563.247-.14.343-.374.143.352 1.096-.172.344-.066-.325-.336-.756-.034-.663.201-.28-.577-1.204.265-1.482-.073-.27-.096-.452-.116-.285.111-.56-.23-.327.055-.889.132-.377-.202.008-1.25.213-.727.382.09.015-.617.552-.6.328-.477.985-.476.81.08.445.052.763-.454.611-.668.202.092.248.979.989.665.11-.39.714.209.597-.309-.518-.04-.973-.034-.443-.485.288-.645-.527-.509-.57-.841.515-.044.993-.304 1.41-.572.557.196-.321-.35.107-.668.39-.32 1.022.067 1.441-.187.552.258 1.401-.388 1.884-.392.354.1.85-.742 1.366-.318.75-.182-.527-.456-.85-.24.306-.325-.117-1.137-.423-.495-.107.55-.616 1.135-1.218 1.168-.411.404-.406-.048-.082-.243-.504.28-1.403.34-1.545-.287-.025.305-.282.527-.755.554-.1.38-.954.468-1.31.391.821-.347 1.42-1.07 1.918-1.659.575.228.523-.61.755-.907-.021-.337.966-.935.072-.804-.508.063.317-.612.309-.935.25-.32.39-.915.72-1.025.38.375.928.137.724-.042.431.1.91.051.206-.065.38-.304.726.253.78.138-.238-.392.461-.775-.183-.564-.577-.142.66-.617-.199-.551-.932.237-2.061.447-3.01.284-.035-.552-.035-.247-.26.01-.213-.05-.122-.793.113-.824.084-.673-.456.277-.377-.135.257-.764-.452.077-.563.343-.299.041-.653-.169-.841-.212-.105-.428.617-.363.604-.661-.154-.142-.085-.221-.453.02.135-.618-.276.135-.515.222-.365-.126-.543-.567-.892-.353-.528.034.063-.495.353-.322.079-.268-.403-.557-.46-.88-.676-.064.428-.07.285-.246.502.105.484-.011.32-.325.632.123 1.083-.048.707-.683-.267-.851.619-.924 1.235-.938.597.138.894-.214.405-.412.053-.203.295-.305.23-.579-.364-.21-1.153-.08-1.65.194-.595.284-.304-1.032.092-.814.305.155.424.61.326 0-.252-.014-.17-.21-.415-.474-.412-.326.125-.608.096-.915.096-.357-.227.277-.477.37-.543-.245.173-.492.089-.595-.185-.146-.129-.386-.165-.436.271-.174-.61-.712-.309-.09-.321.001-.331.294-.343.55.12.135-.166.593-.285.052.076-.482.533-.925.103-1.09.154.03.115-.14.151-.233.336-.28.452-.552.687-.038.617.073.03.41-.107.357.334.395.565-.054.625-.412.311-.116.662.306.34-.146-.23.014-.615-.382-.007-.512.801.39 1.62.126 2.323.384.278-.493.699.227.796.236.26.016-.018.496.158.644.346.367.446.28.556-.16.038-.638.724-.876 1.163-.401.483.195 1.172-.356 1.418.325.377.396.788.218.22-.19-.648-.37 1.18-.06.342-.433-.525-.305 0-.086.117-.218-.366-.363-1.135.267-.865-.42.41-.195.823-.263 1.01-.727-.012-.294.655-.098 1.06-.325.117-.438.595-1.136.738-1.226.458-.054-.09-.535-.477-.09-.517.493-.118-.629-.618.003-.212.316-.957.717-.367.197.467-.564-.566.169-.409-.287-.591.314-1.438.016-1.64-.454-.18-.298.341-.448.57-.776.262-.437 1.685.334 1.015-.145-.698-.352.927.353.316-.055-.368-.302-.873-.52-.182-.627.311.019 1.185.138.48-.115.056-.287.695-.174.179-.388-.29.358-.898-.478-.175-.432-.013-.096-.617-.62-.093-.62-.07-.462.692-.323.426-.686.073-.11.058-.983.655-.6.39-.242.34-.087.268.177.321-.308.764-.407.83-.914.367-.006.247.432.553.45-.09.327.4-.024-.017.388.534.048.33-.588.154-.82.365-.246.542-.374.285.183.276.207.861.484.714.96.207-.498.043-.967-.151-1.165.04.509.003.358-.192.26-.532-.288.311-.53.477-.72.54-.282.02.84.504.949.689.52-.216.935-.281 1.222.89-.22-.475.667-.041.669.298-.55 1.165-.587.823-1.271.17-.607-.681-.992-.212-1.531.049-.339.576-.042.875-.423.158.179.152.406.549.274-.244-.196-.71-.576-.409-.624-.087-.055-.57-.283-.24-.304.831-.025 1.11.693 1.713 1.021.405-.048 1.122.489.26.683-.463.233-1.326.842-1.19 1.356zm7.424 8.557v.017c-.02.142-.084.29-.176.427l.176-.444zm-1.204.85c-.067-.12-.55-.137-.7-.318l.205-.07.11.223.439.11-.054.055z" opacity=".8"/>
        <path d="M17.607 3.08a.425.425 0 0 0 .013.039c.535 0 1.21.266 1.29-.498.27-.445.055-1.132.708-.63.734.042 1.255-.356 1.883-.57a.9.9 0 0 1 .494-.13c.414-.007.903.158 1.216.331 1.026-.529 1.196.813 1.017 1.472.82-.36.05.791.582.764.428.411.698 1.004.838 1.518.436.18.528.327.14-.128-.317-.731.848.216.417.684-.41.407-1.537.628-1.178 1.414.317-.468.884-.775 1.465-.667.677-.247.692.797.919 1.206.035.478.416.724.063 1.186.022.289-.067.78-.326.77-.41-.47-.117-.887-.126-1.417-.014-.338-.872-1.175-.877-.504.15.254.258.337.316.688.404.247-.295 1.027-.267 1.12.492-.447.979-.276.863.38-.311.505-.538.894-1.101.567-.67-.065-.801.417-.765.944l-.18.443c-.267.388-.765.693-1.137.559.088-.068.11-.116.087-.154l.055-.054-.448-.11-.113-.222-.21.069a.208.208 0 0 1-.023-.034.239.239 0 0 0-.115.07l-.213-.105-.224-.11-.224.11.112.221-.224.221h-.337l-.112-.22-.224.33-.225-.11-.449.222-.224-.332.112-.222-.112-.331.224-.111-.112-.332-.224-.221-.224.11-.561-.331v-.332l-.225-.11.113-.222-.225-.442-.112-.11v-.222l-.785-.332-.337.332-.112.332-.336.22v.222l.336.221-.112.443-.449.221-.224.442-.112-.11-.112.442-.45-.11-.111-.222-.561.222-.449-.111-.224-.11v-.111l-.112-.11-.225-.222h-.673l-.336-.221v-.553l-.45-.11v-.333l-.223-.22-.225-.112h-.224l-.112-.331-.225-.222v-.22l-.224-.222.337-.11.336-.111.112-.221.225-.332.56.11.45-.11v-.222l.223-.11.337-.221v-.222l-.337.111-.224-.221-.224.11-.112-.22-.225-.111-.112-.222.224-.11.337-.332.56.221.45-.332h.336l.224.111h.113l-.113-.332v-.332l.337-.22.112-.112.112-.22v-.664l.337-.111-.112-.332.112-.332.112-.332h.337l.224-.11.21.069z" opacity=".4"/>
    </g>
</svg>
