<?xml version="1.0" encoding="UTF-8"?>
<svg width="99px" height="16px" viewBox="0 0 99 16" version="1.1" xmlns="http://www.w3.org/2000/svg" xmlns:xlink="http://www.w3.org/1999/xlink">
    <!-- Generator: sketchtool 42 (36781) - http://www.bohemiancoding.com/sketch -->
    <title>B586917E-9438-455B-A786-A95371C00D70</title>
    <desc>Created with sketchtool.</desc>
    <defs></defs>
    <g id="Footer" stroke="none" stroke-width="1" fill="none" fill-rule="evenodd" opacity="0.54">
        <g id="Footer---1920" transform="translate(-939.000000, -492.000000)" fill-rule="nonzero">
            <g id="Group-3" transform="translate(873.000000, 452.000000)">
                <g id="Payment-Logos" transform="translate(0.000000, 40.000000)">
                    <g id="Mastercard-logo" transform="translate(66.000000, 0.000000)">
                        <g id="svg3409">
                            <g id="layer1" transform="translate(0.023263, 0.003394)">
                                <g id="g13">
                                    <g id="g15" transform="translate(30.000000, 4.000000)" fill="#FFFFFF">
                                        <path d="M10.0470216,8.81762462 L10.0470216,4.86943449 C10.0470216,3.35596161 9.12768631,2.36891408 7.55168292,2.36891408 C6.76368122,2.36891408 5.91001272,2.63212675 5.31901145,3.48756795 C4.85934379,2.76373309 4.20267571,2.36891408 3.21767359,2.36891408 C2.56100551,2.36891408 1.90433743,2.56632358 1.37900297,3.29015844 L1.37900297,2.50052041 L0,2.50052041 L0,8.81762462 L1.37900297,8.81762462 L1.37900297,5.33005667 C1.37900297,4.2114028 1.97000424,3.68497745 2.88933955,3.68497745 C3.80867486,3.68497745 4.26834252,4.27720597 4.26834252,5.33005667 L4.26834252,8.81762462 L5.64734549,8.81762462 L5.64734549,5.33005667 C5.64734549,4.2114028 6.30401357,3.68497745 7.15768207,3.68497745 C8.07701738,3.68497745 8.53668504,4.27720597 8.53668504,5.33005667 L8.53668504,8.81762462 L10.0470216,8.81762462 L10.0470216,8.81762462 Z M30.4693989,2.50052041 L28.2367274,2.50052041 L28.2367274,0.592228519 L26.8577245,0.592228519 L26.8577245,2.50052041 L25.6100551,2.50052041 L25.6100551,3.75078062 L26.8577245,3.75078062 L26.8577245,6.64612005 C26.8577245,8.09378976 27.4487257,8.94923096 29.0247291,8.94923096 C29.6157304,8.94923096 30.2723985,8.75182145 30.7320661,8.48860878 L30.3380653,7.30415174 C29.9440644,7.56736441 29.4843968,7.63316758 29.1560627,7.63316758 C28.4993947,7.63316758 28.2367274,7.23834857 28.2367274,6.58031688 L28.2367274,3.75078062 L30.4693989,3.75078062 L30.4693989,2.50052041 L30.4693989,2.50052041 Z M42.1580907,2.36891408 C41.370089,2.36891408 40.8447546,2.76373309 40.5164205,3.29015844 L40.5164205,2.50052041 L39.1374176,2.50052041 L39.1374176,8.81762462 L40.5164205,8.81762462 L40.5164205,5.26425351 C40.5164205,4.2114028 40.9760882,3.61917428 41.8297567,3.61917428 C42.0924239,3.61917428 42.420758,3.68497745 42.6834252,3.75078062 L43.077426,2.43471725 C42.8147588,2.36891408 42.420758,2.36891408 42.1580907,2.36891408 L42.1580907,2.36891408 L42.1580907,2.36891408 Z M24.4937194,3.02694577 C23.8370513,2.56632358 22.917716,2.36891408 21.9327139,2.36891408 C20.3567105,2.36891408 19.3060415,3.1585521 19.3060415,4.40881231 C19.3060415,5.46166301 20.0940432,6.05389153 21.4730462,6.25130104 L22.1297143,6.31710421 C22.8520492,6.44871054 23.24605,6.64612005 23.24605,6.97513589 C23.24605,7.43575808 22.7207156,7.76477392 21.8013803,7.76477392 C20.8820449,7.76477392 20.1597101,7.43575808 19.7000424,7.10674223 L19.0433743,8.15959293 C19.7657092,8.68601828 20.7507113,8.94923096 21.7357134,8.94923096 C23.5743841,8.94923096 24.625053,8.09378976 24.625053,6.90933273 C24.625053,5.79067886 23.7713845,5.19845034 22.4580483,5.00104083 L21.8013803,4.93523766 C21.210379,4.86943449 20.7507113,4.73782815 20.7507113,4.34300914 C20.7507113,3.88238696 21.210379,3.61917428 21.9327139,3.61917428 C22.7207156,3.61917428 23.5087173,3.94819013 23.9027181,4.14559964 L24.4937194,3.02694577 L24.4937194,3.02694577 Z M61.1357982,2.36891408 C60.3477965,2.36891408 59.8224621,2.76373309 59.494128,3.29015844 L59.494128,2.50052041 L58.1151251,2.50052041 L58.1151251,8.81762462 L59.494128,8.81762462 L59.494128,5.26425351 C59.494128,4.2114028 59.9537957,3.61917428 60.8074642,3.61917428 C61.0701314,3.61917428 61.3984655,3.68497745 61.6611327,3.75078062 L62.0551335,2.43471725 C61.7924663,2.36891408 61.3984655,2.36891408 61.1357982,2.36891408 L61.1357982,2.36891408 L61.1357982,2.36891408 Z M43.5370937,5.65907252 C43.5370937,7.56736441 44.8504299,8.94923096 46.8861009,8.94923096 C47.8054362,8.94923096 48.4621043,8.75182145 49.1187724,8.2253961 L48.4621043,7.10674223 C47.9367698,7.50156124 47.4114354,7.69897075 46.8204341,7.69897075 C45.7040984,7.69897075 44.9160967,6.90933273 44.9160967,5.65907252 C44.9160967,4.47461548 45.7040984,3.68497745 46.8204341,3.61917428 C47.4114354,3.61917428 47.9367698,3.81658379 48.4621043,4.2114028 L49.1187724,3.09274893 C48.4621043,2.56632358 47.8054362,2.36891408 46.8861009,2.36891408 C44.8504299,2.36891408 43.5370937,3.75078062 43.5370937,5.65907252 L43.5370937,5.65907252 L43.5370937,5.65907252 Z M56.2764544,5.65907252 L56.2764544,2.50052041 L54.8974515,2.50052041 L54.8974515,3.29015844 C54.4377838,2.69792992 53.7811157,2.36891408 52.9274472,2.36891408 C51.1544434,2.36891408 49.7754405,3.75078062 49.7754405,5.65907252 C49.7754405,7.56736441 51.1544434,8.94923096 52.9274472,8.94923096 C53.8467825,8.94923096 54.5034506,8.62021511 54.8974515,8.0279866 L54.8974515,8.81762462 L56.2764544,8.81762462 L56.2764544,5.65907252 Z M51.2201102,5.65907252 C51.2201102,4.54041865 51.9424451,3.61917428 53.1244477,3.61917428 C54.2407834,3.61917428 55.0287851,4.47461548 55.0287851,5.65907252 C55.0287851,6.77772639 54.2407834,7.69897075 53.1244477,7.69897075 C51.9424451,7.63316758 51.2201102,6.77772639 51.2201102,5.65907252 L51.2201102,5.65907252 Z M34.7377414,2.36891408 C32.8990708,2.36891408 31.5857346,3.68497745 31.5857346,5.65907252 C31.5857346,7.63316758 32.8990708,8.94923096 34.8034082,8.94923096 C35.7227435,8.94923096 36.6420789,8.68601828 37.3644137,8.09378976 L36.7077457,7.10674223 C36.1824112,7.50156124 35.5257431,7.76477392 34.869075,7.76477392 C34.0154065,7.76477392 33.161738,7.36995491 32.9647376,6.25130104 L37.627081,6.25130104 L37.627081,5.72487569 C37.6927478,3.68497745 36.5107452,2.36891408 34.7377414,2.36891408 L34.7377414,2.36891408 L34.7377414,2.36891408 Z M34.7377414,3.55337112 C35.5914099,3.55337112 36.1824112,4.07979647 36.3137448,5.066844 L33.0304044,5.066844 C33.161738,4.2114028 33.7527393,3.55337112 34.7377414,3.55337112 L34.7377414,3.55337112 Z M68.9501484,5.65907252 L68.9501484,0 L67.5711454,0 L67.5711454,3.29015844 C67.1114778,2.69792992 66.4548097,2.36891408 65.6011412,2.36891408 C63.8281374,2.36891408 62.4491344,3.75078062 62.4491344,5.65907252 C62.4491344,7.56736441 63.8281374,8.94923096 65.6011412,8.94923096 C66.5204765,8.94923096 67.1771446,8.62021511 67.5711454,8.0279866 L67.5711454,8.81762462 L68.9501484,8.81762462 L68.9501484,5.65907252 Z M63.8938042,5.65907252 C63.8938042,4.54041865 64.6161391,3.61917428 65.7981416,3.61917428 C66.9144773,3.61917428 67.702479,4.47461548 67.702479,5.65907252 C67.702479,6.77772639 66.9144773,7.69897075 65.7981416,7.69897075 C64.6161391,7.63316758 63.8938042,6.77772639 63.8938042,5.65907252 L63.8938042,5.65907252 Z M17.795705,5.65907252 L17.795705,2.50052041 L16.416702,2.50052041 L16.416702,3.29015844 C15.9570343,2.69792992 15.3003663,2.36891408 14.4466978,2.36891408 C12.6736939,2.36891408 11.294691,3.75078062 11.294691,5.65907252 C11.294691,7.56736441 12.6736939,8.94923096 14.4466978,8.94923096 C15.3660331,8.94923096 16.0227011,8.62021511 16.416702,8.0279866 L16.416702,8.81762462 L17.795705,8.81762462 L17.795705,5.65907252 Z M12.6736939,5.65907252 C12.6736939,4.54041865 13.3960288,3.61917428 14.5780314,3.61917428 C15.6943671,3.61917428 16.4823688,4.47461548 16.4823688,5.65907252 C16.4823688,6.77772639 15.6943671,7.69897075 14.5780314,7.69897075 C13.3960288,7.63316758 12.6736939,6.77772639 12.6736939,5.65907252 Z" id="XMLID_1775_"></path>
                                    </g>
                                    <g id="XMLID_328_">
                                        <rect id="rect19" fill="#DDDDDD" x="9.46168511" y="1.73265206" width="6.96162107" height="12.5347924"></rect>
                                        <path d="M9.90369059,8.00004625 C9.90369059,5.45322439 11.0971113,3.19430413 12.9314432,1.73264985 C11.5833198,0.669628549 9.8815902,0.0273865151 8.02515792,0.0273865151 C3.62718143,0.0273865151 0.0690195537,3.59293712 0.0690195537,8.00004625 C0.0690195537,12.4071554 3.62718143,15.972706 8.02515792,15.972706 C9.8815902,15.972706 11.5833198,15.3304639 12.9314432,14.2674427 C11.0971113,12.8279346 9.90369059,10.5468681 9.90369059,8.00004625 Z" id="XMLID_330_" fill="#FFFFFF"></path>
                                        <path d="M25.8624237,7.97265973 C25.8624237,12.3797689 22.3042618,15.9453195 17.9062853,15.9453195 C16.049853,15.9453195 14.3481234,15.3030774 13,14.2400561 C14.8564323,12.7784019 16.0277527,10.5194816 16.0277527,7.97265973 C16.0277527,5.42583787 14.8343319,3.16691762 13,1.70526333 C14.3481234,0.642242034 16.049853,0 17.9062853,0 C22.3042618,0 25.8624237,3.58769688 25.8624237,7.97265973 Z" id="path22" fill="#A3A1A7"></path>
                                    </g>
                                </g>
                            </g>
                        </g>
                    </g>
                </g>
            </g>
        </g>
    </g>
</svg>