<svg width="69" height="12" viewBox="0 0 69 12" xmlns="http://www.w3.org/2000/svg"><title>BB631E8A-AA0C-4593-9B81-47DCB4267486</title><path d="M0 12L2.199 0h4.016L8.88 7.337 10.275 0h23.508l-.507 2.756h-3.72l-.381 2.035h3.594l-.423 2.374h-3.594l-.38 2.078h6.003L36.067.001H40l-1.608 8.777h2.664L42.663 0h3.932l-1.607 8.777h2.748L49.343 0h7.57l-.509 2.756h-3.678l-.38 2.035h3.55l-.422 2.374h-3.552l-.38 2.078h5.962L59.153.001s-.212.042 4.44 0c3.832-.035 4.904 1.356 5.284 2.756.635 2.459-1.31 4.41-3.128 4.41A507.164 507.164 0 0 0 67.524 12h-3.932l-1.691-5.766L60.844 12h-36.87l1.691-9.243H23.51L21.775 12H7.78L5.2 4.538 3.849 12H0zm13.615-9.243l-.338 2.035h3.72l-.465 2.374H12.77l-.338 2.078h5.962l1.184-6.487h-5.962zm48.37 2.883s.423.127 1.565-.042c1.142-.17 1.395-.89 1.395-.89s.423-.934-.084-1.655c-.508-.72-2.284-.593-2.284-.593l-.592 3.18z" fill="#FFF" fill-rule="evenodd" opacity=".54"/></svg>