<svg width="95" height="16" viewBox="0 0 95 16" xmlns="http://www.w3.org/2000/svg"><title>B6B54CD2-3588-4AA6-AA81-8074FA23E190</title><g fill="#FFF" fill-rule="evenodd" opacity=".54"><path d="M0 6.512c0-1.13.917-2.047 2.048-2.047h4.843c1.132 0 2.049.916 2.049 2.047v4.372c0 1.13-.917 2.046-2.049 2.046H2.048A2.047 2.047 0 0 1 0 10.884V6.512zm8.644-1.958A2.227 2.227 0 0 0 7.4 4.012a2.98 2.98 0 0 0-5.859 0 2.227 2.227 0 0 0-1.245.542A4.188 4.188 0 0 1 4.47 0a4.188 4.188 0 0 1 4.175 4.554zM60.249 4.465h2.886s1.956-.186 1.956 1.582v2.139l-4.563 1.86s-.093.745.559.745h4.004v2.046h-5.029s-1.676 0-1.676-2.046V6.233s-.093-1.768 1.863-1.768zm.186 3.628l2.607-1.023s0-.465-.465-.465h-1.583s-.56-.093-.56.558v.93zM53.637 12.837h2.142V6.605h1.397v-2.14h-1.397v-.558s-.093-.465.652-.465h.745V1.395H55.5s-1.863 0-1.863 2.047v9.395zM49.912 7.349h.093v-.372a.372.372 0 0 0-.372-.372H47.77a.375.375 0 0 0-.048.003h-2.466V4.464h4.936c1.028 0 1.862.833 1.862 1.86v4.838c0 .925-.75 1.674-1.676 1.674h-3.446c-.925 0-1.676-.75-1.676-1.674V9.116s-.093-1.764 1.397-1.764h3.26v-.003zm-2.607 2.233v.836c0 .206.167.373.373.373h1.955a.373.373 0 0 0 .372-.373v-.836a.372.372 0 0 0-.372-.373h-1.955a.373.373 0 0 0-.373.373zM39.901 6.605h3.865v-2.14h-4.283c-1.77 0-1.956 1.768-1.956 1.768v1.581c0 1.674 1.77 1.953 2.142 1.953h1.63a.512.512 0 0 1 0 1.024h-3.772v2.046h4.377c1.77 0 1.862-2.046 1.862-2.046V9.395c0-1.674-2.048-1.767-2.048-1.767H39.9a.512.512 0 0 1 0-1.023zM29.147 4.465h2.141v5.768s-.093.558.56.558h1.582s.466 0 .466-.558V4.465h2.048v9.395S35.851 16 33.896 16h-4.75v-2.14h4.284s.466 0 .466-.558v-.465H30.73s-1.583-.186-1.583-2.046V4.465zM25.422 7.349h.093v-.372a.372.372 0 0 0-.372-.372H23.28a.375.375 0 0 0-.048.003h-2.466V4.464h4.936c1.028 0 1.862.833 1.862 1.86v4.838c0 .925-.75 1.674-1.676 1.674h-3.446c-.926 0-1.676-.75-1.676-1.674V9.116s-.093-1.764 1.397-1.764h3.259v-.003zm-2.608 2.233v.836c0 .206.167.373.373.373h1.955a.373.373 0 0 0 .373-.373v-.836a.372.372 0 0 0-.373-.373h-1.955a.373.373 0 0 0-.373.373zM12.292 16V6.326c0-1.954 1.77-1.86 1.77-1.86h3.072c2.049 0 1.956 1.767 1.956 1.767v4.744c0 1.488-1.677 1.86-1.677 1.86h-2.98V16h-2.141zm2.048-8.837v3.07c0 .308.251.558.56.558h1.581c.31 0 .56-.25.56-.558v-3.07a.558.558 0 0 0-.56-.558H14.9c-.31 0-.56.25-.56.558z"/><g><path d="M72.29 4.477v.458h-3.526s-1.113 0-1.391 1.192v4.583s-.093 1.376 1.299 1.559h3.617v.458h-3.617s-1.763-.183-1.763-2.017V6.035s.186-1.558 1.763-1.558h3.617zM80.731 6.035v4.4c0 1.266-1.038 2.292-2.32 2.292h-2.04c-1.28 0-2.32-1.026-2.32-2.292V9.52c0-1.266 1.039-2.292 2.32-2.292h3.896v-.825c0-.184 0-1.467-1.577-1.467h-4.638v-.458h4.824c.092 0 1.855 0 1.855 1.558zm-4.36 1.65c-1.025 0-1.855.821-1.855 1.834v.916c0 1.013.83 1.834 1.856 1.834h2.04c1.025 0 1.855-.82 1.855-1.834v-2.75h-3.895zM83.236 12.727h.463V6.585c0-.183-.185-1.742 1.67-1.65h.65v-.458h-1.114c-.649 0-1.67.458-1.67 1.65v6.6zM93.718 4.477V1.818h.464v8.892a2.029 2.029 0 0 1-2.041 2.017h-2.69a2.029 2.029 0 0 1-2.041-2.017V6.494c0-1.114.913-2.017 2.041-2.017h4.267zm-5.844 1.925v4.4c0 .81.664 1.467 1.484 1.467h2.876c.82 0 1.484-.657 1.484-1.467V4.935h-4.36c-.82 0-1.484.657-1.484 1.467z"/></g></g></svg>