<svg width="47" height="16" viewBox="0 0 47 16" xmlns="http://www.w3.org/2000/svg"><title>3AE5C910-AD94-44B4-BE11-8F4CFE18A5A1</title><path d="M37.374 1.574l3.91-.696v14.964h-3.91V1.574zm5.71 0V15.84H47V.877l-3.916.697zM31.804 15.84h3.913V4.896h-3.913V15.84v-.001zM5.952 6.442c-.495-.032-1.64-.106-1.64-1.133 0-1.24 1.648-1.24 2.266-1.24 1.189.053 2.365.261 3.5.62 0 0 .561.197 1.037.399l.045.012V1.705l-.062-.018A14.009 14.009 0 0 0 5.973.875C1.563.875 0 3.435 0 5.63c0 1.264.544 4.24 5.594 4.584.428.026 1.564.091 1.564 1.153 0 .876-.93 1.392-2.494 1.392a12.323 12.323 0 0 1-4.388-.85v3.496c1.706.42 3.459.62 5.215.593 4.312 0 6.243-2.423 6.243-4.824.004-2.72-2.158-4.488-5.782-4.73v-.002zm23.647-1.708c-3.615.116-5.451 1.732-5.451 4.946v6.159h3.945v-5.02c0-1.925.253-2.75 2.544-2.83V4.795a5.472 5.472 0 0 0-1.038-.058v-.002zm-10.612.148a13.57 13.57 0 0 1-2.229 3.81V.874l-4.037.795V15.84h4.037v-4.377a15.181 15.181 0 0 1 1.747 4.38h4.837c-.478-1.983-2.57-5.637-2.57-5.637a17.608 17.608 0 0 0 2.833-5.32H18.99l-.002-.003zm14.772-1.038A1.916 1.916 0 0 0 35.65 1.91 1.916 1.916 0 0 0 33.735 0a1.916 1.916 0 0 0-1.903 1.923 1.925 1.925 0 0 0 1.927 1.923v-.002z" fill="#FFF" fill-rule="evenodd" opacity=".54"/></svg>