<svg xmlns="http://www.w3.org/2000/svg" width="41" height="51" viewBox="0 0 41 51">
    <g fill="#FFF" fill-rule="nonzero">
        <path d="M23.068 0c.103-.006.306.261.51.097.24.114.56-.017.772.095.003.363-.49.634-.38 1.017.158.112.53-.026.236.31-.15.535-.553.895-1.099 1.066-.303.42-.622.865-1.07 1.14-.278.206-.552.381-.696.657-.346.107-.489.363-.417.646-.03.274-.447.294-.701.205.15.27.596.302.853.144.22.102-.094.236.271.104.166-.01.4-.537.31-.1-.24.34-.484.754-.799.97.062-.298-.131-.412-.354-.168-.243.282-.677.089-.792.495-.324.161-.39.61-.044.19.265-.373.585-.494.932-.384.477-.264.18.134-.006.36-.032.217-.266.215-.37.375-.389-.094.169.11-.159.315.322.15.53-.263.734-.446-.338-.294.59-.013.788-.214.267-.338.642-.375 1.014-.443.488-.694 1.209.115 1.85.01.278-.224.568-.21.897-.075.454-.023 1.054.265 1.445.015.232 0 .528.146.754-.067.406 0 .644.165.895.485.129.141.03.562.262.739-.182.058.117.25-.15.405-.244.444-1.062 1.143-.887 1.883.08.466-.558.838-.406 1.353-.113.445-.535.824-.815 1.014-.079.33-.053.471-.303.698.17.389-.439.652-.717.88-.05.348-.35.056-.587.23-.458-.039-.93.177-1.251.577-.412.002-.28.167.059.065.415-.172.807-.473 1.205-.58.405-.024.13.514.177.537.11.304.908.182.775.616-.3.358-.764.568-1.19.349-.334.246-.731.532-.812.915-.455-.068-.77.457-1.197.12-.239-.297-.925.053-.397.147.38 0 .78.151 1.111.173.311.038.648.038.924.226.304-.032.677-.223.666-.526.196-.304 1.02-.24.991.226.45-.176.832.595 1.345.468.219.125.305.3.41.627l.03.047c.153.27.403.532.63.735.063.267.262.323.345.256.104.238-.004.165.304.233.282.247.25.555.362.905-.011.317-.057.596.105.863-.132.36.227.634.147.98.117.433.329.77.521 1.183.08.52.101 1.224.66 1.482-.133.16.065.322-.08.522.27.184.106-.358.453-.073.459.31 1.069.283 1.463.723.424.08.444.485.673.776.128.39.196.742.631.9-.135.375.519.317.657.552-.804.21-.372 1.196-.017 1.646.234.467.791.876.777 1.41-.16.265.092-.336-.303-.31-.391.15-.74-.021-.98-.368-.31-.427-.935.246-1.337-.118-.336.019-.49.343-.081.14.192-.023.383.294.629.038.328.001.711-.205.801.261.268.38.67.399.887.782.669.256.846.96 1.07 1.633.186.49-.07.863-.49 1.11-.222.287-.594.602-.654.833.542-.32.589.655 1.092.44.231.361.177-.024.384-.21.058-.395.275-.84.707-.69.474-.018.8-.012 1.23.049.098-.032-.23-.178.13-.082.573.21 1.24.216 1.656.732.77.355.818 1.199.887 1.905-.016.523-.393.997-.48 1.531.022.412-.108.924-.555.972-.128.26-.492.92-.642.368-.3-.267.206.284-.228.142-.309-.112-.44.115-.028.06.49-.08.117.218-.022.373.16.18.463-.181.234.192-.21.317-.747.559-.959.183-.41.009-.468.493-.921.392.006.175.209.159.338.095.333-.302.635.028.393.386-.123.258-.633-.018-.253.23.06-.028.497-.13.168.119-.228.327-.615.358-.939.293-.217.175-.68.027-.801.396-.178.198.252-.103.336-.144.193-.062.973.07.631.267-.268-.105-.643.34-.223.258.256.137.266-.146.348-.152.011-.126.278-.171.526-.037.51.231-.03.404-.256.34.62.243 1.219-.206 1.867-.148.122-.013.266-.073.383-.022.077.376-.454.347-.182.72.221.506-.263.84-.666.926-.471.032-.965.447-.823.95-.411-.098-.819-.191-1.072.235-.52.179-1.14.184-1.417.702-.73-.142-1.484-.688-2.258-.342-.37.078-1.11.147-1.245.256.105.373-.693-.085-.49-.188.28-.195-.135-.159-.106-.176-.193-.355.067.405-.262.248-.097.082.208-.563-.107-.27-.01.445-.427.155-.13-.06-.25-.08-.385-.025-.167.19-.142.323-.48-.212-.703-.28-.135-.226-.795-.434-.29-.162.351.192.427.65-.103.622-.318.14-.42.42-.771.177-.277-.058-.31.116-.343.144-.323-.237-.63.386-.716-.015-.173-.024-.516.09-.343.149.151-.074.163.094.432.078.037.157.092.266-.094.45-.434.058-.78-.224-1.27-.203-.432-.174-.498.262-.322.47-.068.043-.063.136-.122.18.1-.514-.64-.771-1.033-1.037-.515-.355-.992.155-1.53.08-.312-.002-.64.744-.813.221-.273-.427.11.31-.135.45-.317.218.11.574-.278.606.021.298.342.256.07.558-.194-.106-.147.127-.384.271.014.337-.204.49-.491.356-.28.076-.385-.57-.719-.431-.433.204-.415-.48-.83-.326.33.078.002.427-.157.082-.484-.174-.824.25-1.306.125-.087.074-.337-.22-.395.084-.062.233-.06.483-.404.461-.183.132-.32.199-.456.42.011-.045-.042-.379-.075-.377-.189.22.005.335-.19.522-.295.115.337.26-.013.508-.189.003-.328.247-.406.306-.213-.338-.322-.792-.847-.82-.427-.223-.275.618-.813.4-.168-.123-.1-.467.016-.631.325-.115.602-.412.882-.194.157-.294.59-.34.762-.666.316-.16.105-.558.53-.54.088-.328.074-.776.385-.703.125-.054.01-.207.275-.168.494.062.25-.539.636-.599.314-.308.56-.679.47-1.172l.001-.002c.104-.155.056-.343.06-.523.321-.049.718.379.956-.086.36-.235-.138-.551.16-.73.112-.342.945-.234 1.342-.307.363-.07.742.072 1.081.026.364.257.846.292 1.26.084.355.106.614-.107.459-.448-.059-.275.147-.223.166-.523.236-.076.488-.647.877-.662.295-.442.564-.982.98-1.303.261-.06.113-.306-.023-.063-.454.15-.686.699-1.068.888v-.015c-.008.022-.018.049-.03.075-.272.142-.652.29-.822.13-.238.275-.687.42-.63.803-.556.244-1.339.177-1.721-.375-.379.065-.27-.574-.588-.736-.098-.133-.78-.014-.493.271-.211.014-.519-.074-.695.095-.25.09-.44-.104-.404-.36.194-.296.407.047.725-.215.213-.311-.255.097-.39-.181-.229.126-.685-.052-.58-.257.337.127-.063-.16-.05-.278-.103.216-.348-.134-.187.203-.375.067-.968-.061-.946.448-.203.18-.582-.027-.734.286-.22.091-.496-.062-.495-.28-.385-.148-.04-.107.059-.15.114.057.89-.222.323-.132-.274.154-.767-.235-.764.145-.045-.178-.401-.28-.105-.32.253-.13.427-.25.266-.598-.218-.28-.79.119-.605-.287.17-.183.618-.218.747-.47-.092-.37.376-.111.47-.09.073-.232.439.109.382-.23.262-.045.342-.39.498-.384.114-.253.696.03.834-.282.373-.293.916-.444 1.122-.97.194-.285.147-.9.326-1.008.342-.055.34-.282-.02-.114-.49-.233-.193-.853.155-1.027-.018-.03-.301.098-.365-.2-.326-.216.153-.683-.319-.815-.45-.03-1.098.176-1.035.65-.149.162-.323-.352-.552-.066-.178-.046-.26.165-.38.06.164-.452.53-.73.948-.948.312-.22.544-.544.543-.877.141.05.397-.448.57-.611.38-.017.896-.29 1.156-.42-.348-.41.267-.082.44.036.634.171 1.257-.753 1.78-.01.166.156.247.18.359.243 0 .002.002.002-.075-.07-.103-.187-.43-1.02.308-.953.05.404.578 1.178.941.629.178-.322-.375.122-.535-.205-.426-.254-.458-.808-.694-1.193.136-.475.66-.82.887-1.015-.81.374-.839-.595-.618-1.101.234-.048.703-.053.587-.228.098-.253-.173-.1-.168-.41.265-.265.5-.47.212-.835.212-.235-.31.071-.38.19-.202-.043-.282-.435-.372-.01-.1.204-.31.52-.353.466-.187-.147-.293-.28-.26-.52.202-.045.111-.954.006-.312-.092.387-.488-.095-.572-.33.081-.571-.655-.968-.768-1.451.243-.443.192-1.043.646-1.407-.048-.248.235-.784.389-.741.22.177.347-.099.146-.185.194-.426.805.19.858-.21-.358.062.262-.194.03-.208.01.009-.012.018-.113.034-.27.043-.519.105-.803.067-.285-.038-.557-.104-.76-.09-.088.141-.313-.15-.21.22.103.376-.143.485-.483.424-.252.222-.415.086-.4.025-.135.228.063.349-.329.509-.275.276-.574.032-.46-.293-.115.276-.138.548-.418.239-.19-.105-.001-.62-.277-.254-.293.062-.415-.385-.49-.381-.269.257.075.468.184.682-.176.098.106.512-.111.64-.424-.006-.597-.387-.86-.618-.264-.11-.548-.341-.74-.45-.429.128-.515.434-.287.77.125.187.234.508.146.585-.458-.1-.157-.578-.47-.771-.306-.33-.879-1-.466-1.448.441-.162.11.776.556.566-.206-.354-.374-.78-.115-1.19.191-.423.713-.703.63-1.268.262-.235.254-.672.689-.726.213-.253-.083-.56-.105-.633.081-.45-.547-.405-.63-.722-.505-.17.218-.504-.167-.816-.138-.448.105-1.217.637-.795.167.003.923.16.638.026-.489-.016-.852-.574-1.072-.758.017.224.48.59-.024.448-.29-.225.076-.752.022-.804-.22.443-.207-.564-.245.02.089.19.113.742-.057.762.053.111-.048.693-.297.808-.232-.028-.164-.904-.292-.564.227.54-.335.051-.354-.07-.071.295-.177.501-.03.796-.387-.066-.593-.414-.5-.789-.005-.384.35-.807.641-1.062.381-.128.335-.585.773-.702.101-.2-.403.163-.471.187-.082.467-.706.504-.824.974-.08.238-.37.398-.46.243-.026.56.228.94.458 1.435-.314.224-.695.695-.55 1.1.074.163-.126.457-.16.714-.066.253-.32.334-.039.493.202.498-.645.784-.996.582-.12-.43.254-.653.356-.98-.053-.46.08-.959.212-1.323.133-.37.646-.651.67-.965-.192.232-.45.679-.65.345-.298-.279.261-.77.203-.864-.174.274-.504.307-.293-.074.29-.244.464-.862.147-.392-.14.172-.287.658-.243.173.21-.237.262-.726.585-.642-.254-.131.153-.507.031-.619-.163.255-.446.549-.225.063.212-.25.02-.292-.015-.515-.012-.5.33-.785.533-1.187.142.001.994.055.393-.032-.204.04-.31-.112-.374-.226-.218.343-.02-.373.245-.121.231-.088.575-.372.122-.153-.378.22-.271-.254-.094-.45.214-.172.157-.427.575-.446.248.165.628-.246.19 0-.6-.003-.2-.447.015-.713.108-.246-.393.282-.402.388-.106.265-.402.265-.537.585-.352.098-.585.905-1.04.873-.258-.195-.31-.208-.687-.287-.393-.224-.516-.834.078-.622.255-.253.515-.335.843-.168.563-.172-.135.032-.303-.188-.289-.024-.52.339-.835.158-.25-.095-.989.17-.936-.304h-.003c.204-.258.658-.184.966-.278.208.273.26-.003.31-.01.245.052.402-.147.026-.244.004-.259.75-.136.6-.405-.11.287-.548.069-.155-.048-.2.012-.959.082-.517-.068.1-.037-.009-.281.12-.47.049-.432.454-.208.64-.03.224.037.714-.253.21-.082-.389.111-.165-.475-.527-.274-.386-.294.416-.841.655-.392.245.103.62-.155.153-.024-.097-.186-.384-.248-.59-.348.139-.23.21-.359.184-.576.347-.273.475.166.806.186.04-.05-.377-.225-.496-.367-.302.072-.931-.052-.426-.377.282.024.857-.323.732-.489-.165.313-.759.53-.546.08-.171.216-.766.543-.682.082.001-.146.083-.36-.176-.37-.085-.357.072-1.165.397-.636.156-.096.2.235.363.205-.173-.205.751-.03.238-.227-.375.057-.35-.073-.518-.187-.003-.315-.502-.336-.21-.653.048-.24.571.093.262-.26-.49.021-.308-.591-.364-.877.332-.039.528-.045.526.37.102.298.174.193.218.1.195-.074-.07-.445-.161-.612.022-.389.379-.2.382.1.4.395.241-.505.638-.126.13.262.712.305.235.077-.173-.148-.606-.396-.187-.368.107.268.454.058.629.349.209.108.379.485.21.054-.223-.178-.5-.291-.33-.528-.332-.137-.643-.434-.81-.618-.303-.248.08-.472.202-.106.133-.076.59.041.334-.28.102-.09-.016-.101.123-.23-.297-.067-.344-.407-.546-.619.137-.18.395.219.668-.034.234.061.326-.235.577-.013.195.005.298.218.248-.009.087-.002-.774-.205-.6-.47-.152.025-.044-.734.19-.475.441.155-.103-.13-.033-.166-.04-.298.55.038.26-.237-.406-.062-.339-.448-.026-.66.078-.14.015-.318.076-.46.243.11.598.101.66.409.193-.077.06-.422.222-.065.504.124.096.515-.06.827.247-.067.313-.456.582-.622-.165-.528.986-.003.463.347-.21.402.065.25.125-.041.133-.36.624-.215.63-.226.11-.202.264 0 .39-.237.278.284.354-.483.445.012.455.069.854.002 1.201-.355.318-.077.346.102.553.114.23-.03.756.088.338-.243.004-.13.03-.173.07-.177zm-8.076 15.958c.067.36-.293.75-.433 1.09-.1-.159-.758.226-.521-.225.187-.392.696-.696.954-.865zm.171-1.842c-.087.093.01.475-.224.295-.06-.112-.262.289.065.097.035.327-.883.626-.558.186-.39.265-.844.422-1.36.421-.149.383-.664-.4-.198-.361.138.195.23.161.256.027.21.152 1.017-.325.633-.25-.21.147-.811.178-.406-.145.012-.343.664-.286.538-.568-.386.306-.491-.1-.838-.192-.446.085-.177-.256-.145-.327-.277-.141.233-.263.306-.124-.168-.441.598-.374.668.057.13.291.287.498.598.47.188 0 .504.288.665.414zm-1.687-7.054c.078.353-.03 1.022-.097 1.092.241.018.076.344.249.485.23.047.127.31.172.31.32-.047.689.406 1.005.019.14.01.302.006.372.141.115.412-.501.4-.475.631-.07.244-.376.46-.519.682-.302.3-.42-.047-.239-.297-.144-.374.624-.5.54-.602-.263.167-.502.012-.603-.187.06.26-.334.793-.27.235-.122-.225-.627.215-.73.037.381-.203-.55-.108-.169-.368-.097.001-.395-.274-.424-.435.087-.478.508.058.52-.033-.207-.21-.193-.4-.43-.308-.048-.172-.126-.358-.234-.161-.03-.424-.17.092-.177.28-.304-.142-.583-.233-.661-.563-.274-.133.08-.208.098-.217-.228-.374.233-.305.278.01.309.271.255.048.111-.216.13-.128.29-.047.035-.308-.233-.26.06-.637.134-.148.125.237.522.337.488.366-.03.436.121-.43.227.027.467.345-.375-.353.011-.534-.31-.18-.102-.452.072-.667-.093-.229.463.129.446.353.18.022.218.257.27.376zm-.057-5.356c-.293.18.038.472-.046.517-.242.214-.565.55-.57.738.32.298.773-.637.714-.023-.141.284-.399.257-.628.175-.138.036-.332-.17-.19.147.245.34-.436.431-.536.539.383-.014.53-.26.557.2.106.488-.606.181-.591.284.465.11.125.562-.067.504-.057.331-.355-.36-.245.083-.338-.057-.374-.573-.299-.757-.304.245 0 .736.087.914-.053.162-.727-.123-.355.225.187.182-.087.277-.138.297-.219-.035-.307.346-.484.526-.157-.088-.573-.476-.64-.696.27.044.19.344.358.012.08-.122.39-.222.376-.263-.325-.227.229-.135.363-.16-.106-.227-.475-.337-.755-.34-.281-.174-.305-.375-.02-.438.306-.131-.124-.094-.004-.196-.175-.149-.32-.47-.137-.707-.005-.162.491-.018.142-.236.007-.38.334-.054.396-.15.245.179-.173.229.232.35.055-.338.585.134.581-.087-.26-.205-.56-.727-.105-.832.161-.254.543-.192.713-.315.162-.449.815-.623.965-.963.258.184.277.377.326.652zM10.234 6.71c-.024.283-.575-.213-.363.095-.004.248.39.024.146.351-.337.058-.616-.128-.548.155-.004.466-.38-.552-.655-.202-.388-.149-.09-.396 0-.577.203.03.351-.091.216.13.136.084.366-.58.297-.134.205.46.252-.45.55-.069-.272.322.427-.013.357.251zm-.523 1.22c-.073.6-1.14-.225-.426-.329.156.139.347.131.426.329zm.048.895c-.15.203-.243.537-.515.393.098.004.554.432.205.502-.451.02.173.064.218.226.002.182-.622.131-.641-.158-.125-.485-.063-.781.045-1.26-.135-.417.002-.124.213-.025.207.085.418.226.475.322zm6.775 9.702c.482.05.401.633.526.846.16.202-.088.326.102.467.088.274-.102.462-.437.408-.614-.108-.43-.692-.659-1.121.003-.329.28-.544.468-.6zm-3.027-1.214c-.086.53.362.973.371 1.462-.168.183-.39.355-.682.318-.047.568-.73.066-.219-.149.19-.249-.502-.525.046-.662-.045-.263-.463.036-.45.309-.277.438-.63.129-.281-.2.163-.18-.04-.312.065-.543.008-.154.452-.32.433-.242-.069.415.045.254.127-.013.123-.085.613-.569.59-.28zm.982-.246c.011.503-.352.478-.39.973-.693.232-.607-1.192.196-.938.051-.004.18-.103.194-.035zm4.125 15.513c.164-.096.471.381.27.455-.041-.282-.563-.21-.27-.455zm.88-.592c.542-.052.545.516.798.753.343-.266.686.019.227.26-.334.154-.51.553-.755.69-.283.02-.36-.2-.555-.38-.228-.337-.32-.812-.203-1.173.189-.044.293-.116.488-.15zM31.09 47.184c-.4.074-.304.696-.826.505-.184-.276-.783-.47-.844-.457.15-.325.51-.206.607-.35.27-.407.614.052.958.032.01.092.21.187.105.27z" opacity=".8"/>
        <path d="M11.126 24.161l-.129-.042-.138.068h-.208l-.069.206-.069.205.07.206-.208.069V25.284l-.07.137-.069.069-.207.137v.205l.07.206h-.07l-.138-.068h-.208l-.277.205-.345-.137-.208.206-.138.068.069.137.138.069.07.137.138-.068.138.137.208-.069v.137l-.208.137-.138.069v.137l-.277.069-.346-.069-.138.206-.07.137-.207.068-.207.069.138.137v.137l.138.137.07.206h.138l.138.068.139.138v.205l.276.069v.343l.208.137h.415l.138.137.07.068v.069l.138.068.276.069.346-.137.07.137.276.069.07-.275.068.069.139-.274.276-.137.07-.275-.208-.137v-.137l.207-.137.07-.206.207-.205.484.205v.137l.07.069.138.274-.07.137.139.069v.206l.346.205.138-.068.138.137.07.205-.139.069.07.206-.07.137.139.205.276-.137.138.069.139-.206.069.137h.207l.139-.137-.07-.137.139-.068.138.068.131.065c-.085.118.508.317.43.523-.298.288-.795-.392-.843.081-.179.376.123.698.424.737-.042.317.093.407-.018.76-.02.482.419.667.599.977-.048.3-.392.754-.02.898.04.009.106.008.115.058-.108.142-.492-.149-.583.195.173.321.525.335.412.758.259.381.193.853.22 1.292.272.162-.12.605-.246.8-.16.36-.174.723-.393 1.07.248.55-.222.956-.478 1.4.034.385-.06.174-.274.274-.063.267.16.277.216.192-.027.075-.04.151 0 .227.364.052.056.668-.07.463.068-.168-.348.103-.243-.103-.273.278-.52.094-.839-.038-.351.081-.272.008-.184-.247-.272.202-.199.186-.214.431-.108.087-.587.499-.274.133.059-.247-.242-.588-.311-.666.075.27.14.51.06.65-.107.225-.568.206-.346-.033-.185-.035-.07.085-.285.115-.393.143-1.029-.045-1.35.354-.29-.21-.161.193.047.163-.154.216-.26.41-.601.43-.069.382-.58-.164-.603.337-.197-.005.231.273-.201.212-.347.057-.138.409-.57.336-.246.172-.814.082-.234-.274.095-.255-.524.058-.716-.133-.148.25.306-.04.26.223.203.23.07.541-.145.692-.273.047-.384.308-.575.068.035.074-.062.482-.067.495-.163-.322-.608-.093-.497.22-.223.063-.393-.225-.588-.023-.181.21-.268.327-.448.041-.106.159-.58-.116-.41.107-.088.251-.319.08-.37.36-.195-.105-.233-.057-.514.084-.25-.125.002-.364-.242-.485.005.229-.372.168-.478.287-.171.218-.258-.24-.432.138-.042.167-.303.173-.385.126-.067-.334.648-.414.826-.795.232-.191-.438.17-.575.212-.282.177-.394.135-.124-.09.305-.285.877-.344 1.124-.636.103-.256-.282.036-.309-.308.023.308-.438.449-.784.514-.454-.054-.6.334-.98.336-.213-.021-.463.14-.267-.088.357.013.16-.223.17-.306.274.062.552-.187.322-.279.175-.164.348-.19.39-.128.102-.197.36-.04.27-.236.113-.3.659-.285.722-.47-.413.016-.813.352-.969.359-.215-.018-.636.241-.897.39.077-.226-.53-.15-.166-.313.02-.624-.33-.078-.54.062.016-.197-.028-.335-.163-.39-.123-.28.799-.164.329-.516-.071-.088.188-.252.307-.309.262-.18.768-.135.819-.443.069.348.155-.087.216-.232.09.218.69-.106.216-.04-.204-.208-.475-.022-.417.124-.176-.357-.758.164-.934-.045-.17-.06-.284-.072-.179.069-.352-.143-.206.033-.56.08-.237-.124.005-.772.134-.449.241.056.01-.381.348-.37.206-.296.62-.295.51.049.28.032.48-.281.385-.414.127.057.156.606.623.412.069-.242.45.13.376-.191-.326-.024-.613-.022-.28-.3.182-.4-.331-.315-.358-.52.324-.028.625-.188.888-.354.35.121-.202-.216.067-.414.246-.197.644.042.908-.115.347.16.882-.24 1.187-.242.223.06.534-.46.86-.197.472-.113-.332-.282-.536-.148.193-.202-.073-.704-.266-.307-.067.34-.388.702-.767.722-.26.25-.256-.03-.052-.15-.317.173-.883.21-.973-.177-.016.189-.178.325-.475.342-.063.235-.601.29-.826.242.518-.215.894-.662 1.208-1.026.363.14.33-.377.476-.561-.013-.208.608-.578.045-.497-.32.039.2-.379.195-.579.157-.198.246-.565.454-.634.238.232.584.085.456-.025.271.061.572.031.13-.041.239-.188.457.156.49.086-.15-.243.29-.48-.115-.35-.363-.087.416-.38-.125-.34-.587.147-1.298.277-1.895.175-.023-.341-.023-.152-.165.007-.134-.03-.076-.49.072-.51.052-.416-.288.171-.238-.084.162-.472-.285.048-.355.213-.188.025-.411-.105-.53-.131-.066-.265.39-.225.381-.41-.096-.087-.053-.136-.285.013.085-.382-.174.084-.324.138-.23-.079-.342-.352-.562-.219-.333.02.04-.306.222-.2.05-.165-.254-.344-.29-.543-.425-.04.27-.044.18-.152.316.065.305-.008.201-.202.398.076.683-.03.445-.422-.167-.527.39-.571.779-.58.375.085.562-.132.255-.255.033-.126.186-.189.144-.358-.229-.13-.726-.05-1.04.12-.373.175-.19-.639.06-.504.191.096.266.378.204 0-.158-.008-.106-.13-.261-.293-.259-.201.079-.376.06-.566.06-.22-.142.171-.3.23-.342-.153.109-.306.056-.369-.116-.09-.08-.239-.104-.27.171-.108-.384-.44-.194-.056-.203.001-.209.182-.216.341.075.083-.105.367-.18.032.048-.298.336-.572.065-.675.097.02.073-.086.095-.143.212-.174.285-.342.433-.024.388.045.019.254-.067.22.21.245.355-.032.393-.254.196-.072.417.19.214-.09-.145.009-.387-.237-.004-.317.504.241 1.02.078 1.463.238.175-.306.44.14.501.145.164.01-.011.307.1.399.217.227.28.173.35-.099.024-.395.456-.542.733-.248.304.12.737-.22.892.201.238.245.497.135.139-.118-.408-.229.743-.037.216-.267-.331-.19 0-.053.073-.135-.23-.225-.715.165-.544-.26.258-.121.518-.163.635-.45-.007-.182.413-.06.668-.2.074-.272.375-.703.465-.76.288-.032-.057-.33-.3-.055-.326.305-.075-.389-.39.002-.134.195-.602.443-.231.122.294-.349-.357.104-.257-.178-.373.195-.906.01-1.033-.28-.113-.185.214-.278.358-.48.166-.27 1.062.206.64-.09-.44-.218.584.218.199-.034-.232-.187-.55-.321-.115-.388.196.012.747.085.303-.07.035-.179.438-.109.112-.24-.182.22-.565-.297-.11-.269-.008-.059-.388-.383-.058-.383-.045-.286.436-.2.268-.424.046-.068.036-.608.413-.37.245-.151.213-.055.168.108.202-.19.481-.251.523-.565.231-.004.155.267.348.278-.056.203.252-.015-.01.24.336.03.208-.363.097-.508.23-.151.341-.23.18.114.173.128.542.3.449.593.13-.307.027-.597-.095-.72.024.315.002.222-.121.161-.335-.178.196-.328.3-.445.34-.174.012.52.318.587.433.322-.137.578-.178.756.56-.137-.299.412-.025.413.187-.34.734-.362.518-.786.107-.375-.43-.613-.134-.947.031-.21.364-.026.551-.261.1.11.096.25.346.17-.153-.122-.447-.357-.257-.386-.055-.035-.36-.176-.151-.189.523-.016.698.429 1.078.632.256-.03.707.302.165.422-.292.145-.836.521-.75.84zm4.676 5.293v.01a.647.647 0 0 1-.11.265l.11-.275zm-.758.525c-.042-.074-.346-.084-.441-.196l.13-.043.068.137.277.069-.034.033z" opacity=".4"/>
        <path d="M11.116 24.108a.272.272 0 0 0 .008.025c.327 0 .739.167.788-.312.166-.28.034-.71.433-.395.449.026.768-.224 1.151-.358a.54.54 0 0 1 .302-.082c.254-.004.553.1.744.208.627-.331.732.51.622.924.501-.226.03.495.356.479.261.257.426.629.512.951.267.113.323.205.086-.08-.194-.459.518.136.255.43-.251.254-.94.393-.72.886.193-.294.54-.486.895-.419.414-.154.423.5.562.757.022.3.254.454.038.743.014.181-.04.49-.199.484-.25-.295-.071-.557-.077-.89-.008-.212-.533-.736-.536-.316.092.16.158.212.193.432.247.155-.18.644-.163.702.3-.28.598-.173.527.239-.19.317-.328.56-.673.355-.41-.04-.49.262-.468.592l-.11.278c-.163.244-.467.435-.695.35.054-.042.067-.072.054-.096l.033-.034-.274-.07-.069-.138-.128.043a.13.13 0 0 1-.014-.021.145.145 0 0 0-.07.043l-.13-.065-.138-.07-.137.07.069.139-.137.138H13.8l-.069-.138-.137.208-.137-.07-.274.139-.138-.208.069-.139-.069-.208.138-.07-.069-.207-.137-.14-.137.07-.343-.208v-.208l-.137-.07.068-.138-.137-.277-.069-.07v-.139l-.48-.208-.206.208-.068.209-.206.138v.139l.206.139-.069.277-.274.139-.137.277-.069-.069-.068.277-.275-.069-.068-.139-.343.14-.275-.07-.137-.07v-.069l-.068-.07-.138-.138h-.411l-.206-.139v-.347l-.274-.069v-.208l-.137-.139-.137-.07h-.138l-.068-.207-.137-.139v-.139l-.138-.138.206-.07.206-.07.069-.138.137-.208.343.07.274-.07v-.139l.137-.069.206-.139v-.138l-.206.069-.137-.139-.137.07-.069-.14-.137-.069-.069-.138.138-.07.205-.208.343.139.275-.208h.205l.138.07h.068l-.068-.209v-.208l.205-.139.069-.069.069-.139V24.828l.205-.07-.068-.207.068-.208.069-.209h.206l.137-.069.128.043z" opacity=".8"/>
    </g>
</svg>
