<svg width="50" height="16" viewBox="0 0 50 16" xmlns="http://www.w3.org/2000/svg"><title>28F35834-8C92-4149-8ECD-307C45AF549A</title><g fill="#FFF" fill-rule="evenodd" opacity=".54"><path d="M6.434.006H0v.32c3.703.736 8.357 3.962 9.6 8L8.22 1.479A1.659 1.659 0 0 0 6.433.006z"/><path d="M36.335 1.092a35.408 35.408 0 0 1-.55 3.236 8.605 8.605 0 0 0-3.614-.71c-.93.062-2.027.421-2.044 1.263-.016.932 1.51 1.487 2.358 1.895 1.53.735 3.173 1.716 3.3 3.71a4.71 4.71 0 0 1-1.414 3.632c-2.142 2.034-6.894 2.248-10.137.947.202-1.086.385-2.192.55-3.316 1.255.534 2.98 1.261 4.872 1.027.862-.107 1.916-.612 1.886-1.5-.037-1.084-2.05-1.728-3.065-2.29-1.178-.653-2.52-1.737-2.593-3.394a4.352 4.352 0 0 1 .943-2.843c1.674-2.09 5.978-2.834 9.508-1.657zm-18.728 14.56L20.072.808h4.033L21.64 15.652h-4.033zM14.237.777c-1.39 3.288-2.576 6.781-4.008 10.027l-.42-1.948c0-.007-.005-.016-.007-.023l.071.346A9.156 9.156 0 0 0 8.357 6.3l-.053-.07a9.698 9.698 0 0 0-.373-.447c-.077-.09-.17-.185-.251-.274a15.079 15.079 0 0 0-3.413-2.815l3.6 12.924h4.32c2.035-5.009 4.23-9.856 6.287-14.843H14.23l.007.003zM49.93 15.698h-3.694c-.238-.707-.305-1.588-.55-2.29h-5.028l-.943 2.29H35.47l5.5-12.71c.243-.558.68-1.32.865-1.658.28-.514 1.36-.553 1.82-.553h3.054l3.22 14.921zM43.81 4.89l-2.053 5.519h3.32l-1.266-5.52z"/></g></svg>