<svg id="baseball" xmlns="http://www.w3.org/2000/svg" viewBox="0 0 56.7 56.7"><defs><style>.cls-1{fill:#fff;}</style></defs><title>cricket</title><path class="cls-1" d="M47,8.9a.91.91,0,0,1,.7.3l.9.8a1.12,1.12,0,0,1,.1,1.6L39.8,21.9l1.7,1.4a2.09,2.09,0,0,1,.2,3L21,50.1a2,2,0,0,1-1.6.7,2.39,2.39,0,0,1-1.4-.5l-6-5.1a2.09,2.09,0,0,1-.2-3l2.1-2.4L23.2,29l9.3-10.6a2,2,0,0,1,1.6-.7,2.39,2.39,0,0,1,1.4.5l1.7,1.4L46.1,9.3a1.8,1.8,0,0,1,.9-.4"/><circle class="cls-1" cx="40.7" cy="43.3" r="5.4"/><polygon class="cls-1" points="27.2 56.7 31.5 56.7 31.5 43 27.2 47.9 27.2 56.7"/><path class="cls-1" d="M17.4,53.8v2.9h4.3V53.6a5,5,0,0,1-2.4.6A16.25,16.25,0,0,1,17.4,53.8Z"/><path class="cls-1" d="M8.1,44a5.26,5.26,0,0,1,1.3-4L12,37V4.6a1.71,1.71,0,0,0-1.7-1.8h1.5a.43.43,0,0,1,.4.4v.5a.43.43,0,0,0,.4.4h4.1a.43.43,0,0,0,.4-.4V3.2a.43.43,0,0,1,.4-.4h1.7a1.77,1.77,0,0,0-1.7,1.8V30.7l4.3-4.9V4.6a1.71,1.71,0,0,0-1.7-1.8h1.7a.43.43,0,0,1,.4.4v.5a.43.43,0,0,0,.4.4h4.1a.43.43,0,0,0,.4-.4V3.2a.43.43,0,0,1,.4-.4H29a1.77,1.77,0,0,0-1.7,1.8V19.5l2.8-3.2a4.43,4.43,0,0,1,1.5-1.2V4.6a1.71,1.71,0,0,0-1.7-1.8h-.6a.43.43,0,0,0,.4-.4V1.6a.43.43,0,0,0-.4-.4H27.5a.43.43,0,0,1-.4-.4V.4c-.1-.2-.2-.4-.4-.4H22.6a.43.43,0,0,0-.4.4V.9a.43.43,0,0,1-.4.4H20a.43.43,0,0,0-.4.4.43.43,0,0,0-.4-.4H17.4A.43.43,0,0,1,17,.9V.4a.43.43,0,0,0-.4-.4H12.5a.43.43,0,0,0-.4.4V.9a.43.43,0,0,1-.4.4H9.9a.43.43,0,0,0-.4.4v.8a.43.43,0,0,0,.4.4H9.3A1.77,1.77,0,0,0,7.6,4.7V56.8H12V49.6L9.9,47.8A5.9,5.9,0,0,1,8.1,44ZM19.6,2.5a.43.43,0,0,0,.4.4h-.8C19.4,2.8,19.6,2.7,19.6,2.5Z"/></svg>